<svg class="login-icon" viewBox="0 0 17 17" fill="none" xmlns="http://www.w3.org/2000/svg" onclick="showPassword()">
    <path d="M3.49131 13.5087C4.48193 14.4993 5.74406 15.1739 7.11809 15.4472C8.49212 15.7206 9.91634 15.5803 11.2107 15.0442C12.505 14.508 13.6112 13.6002 14.3896 12.4353C15.1679 11.2705 15.5833 9.90097 15.5833 8.50002C15.5833 7.09907 15.1679 5.72958 14.3896 4.56473C13.6112 3.39988 12.505 2.49199 11.2107 1.95587C9.91634 1.41975 8.49212 1.27948 7.11809 1.55279C5.74406 1.8261 4.48193 2.50072 3.49131 3.49135" stroke="white" stroke-width="2" />
    <path d="M10.625 8.49998L11.4059 7.87528L11.9056 8.49998L11.4059 9.12467L10.625 8.49998ZM2.125 9.49998C1.57272 9.49998 1.125 9.05226 1.125 8.49998C1.125 7.94769 1.57272 7.49998 2.125 7.49998V9.49998ZM7.79167 4.95831L8.57254 4.33362L11.4059 7.87528L10.625 8.49998L9.84413 9.12467L7.0108 5.58301L7.79167 4.95831ZM10.625 8.49998L11.4059 9.12467L8.57254 12.6663L7.79167 12.0416L7.0108 11.417L9.84413 7.87528L10.625 8.49998ZM10.625 8.49998V9.49998H2.125V8.49998V7.49998H10.625V8.49998Z" fill="white" />
</svg>