<svg viewBox="0 0 24 24" fill="none" xmlns="http://www.w3.org/2000/svg">
    <path d="M10.1416 11.2627C10.051 11.491 10 11.7394 10 12C10 13.1046 10.8954 14 12 14C12.2604 14 12.5082 13.9479 12.7363 13.8574L14.2109 15.332C13.5774 15.7532 12.8178 16 12 16C9.79086 16 8 14.2091 8 12C8 11.1821 8.24569 10.4217 8.66699 9.78809L10.1416 11.2627ZM12 8C14.2091 8 16 9.79086 16 12C16 12.2736 15.9722 12.5407 15.9199 12.7988L11.2002 8.0791C11.4586 8.02668 11.7262 8 12 8Z" fill="#1B3954" />
    <path d="M7.57446 8.69531C6.45786 9.51286 5.52051 10.4768 4.85767 11.2461L4.58423 11.5703C4.48455 11.6913 4.40959 11.7817 4.3479 11.8613C4.29944 11.9239 4.26958 11.9686 4.24927 12C4.26958 12.0314 4.29944 12.0761 4.3479 12.1387C4.40959 12.2183 4.48455 12.3087 4.58423 12.4297L4.85767 12.7539C5.5373 13.5427 6.50526 14.5368 7.65942 15.3672C8.9864 16.3219 10.4745 17 12.0002 17C13.0478 17 14.077 16.6793 15.0491 16.1699L16.5178 17.6387C15.2048 18.4171 13.6701 18.9999 12.0002 19C9.89043 19 7.99446 18.0725 6.49146 16.9912C5.16931 16.04 4.08515 14.922 3.33911 14.0557L3.04028 13.7012C2.74418 13.3417 2.29093 12.8546 2.2356 12.1445L2.22974 12L2.2356 11.8555C2.29093 11.1454 2.74418 10.6583 3.04028 10.2988L3.33911 9.94434C4.01896 9.15488 4.98013 8.15738 6.14575 7.2666L7.57446 8.69531ZM12.0002 5C14.11 5.00007 16.0061 5.92749 17.509 7.00879C19.0199 8.09582 20.2204 9.40058 20.9602 10.2988L21.22 10.6152C21.4922 10.9626 21.7708 11.408 21.7708 12L21.7649 12.1445C21.7243 12.6653 21.4696 13.0662 21.22 13.3848L20.9602 13.7012C20.4735 14.2921 19.7851 15.0563 18.9426 15.8213L17.5266 14.4053C18.3066 13.7056 18.954 12.991 19.4163 12.4297L19.6526 12.1387C19.7008 12.0764 19.7299 12.0314 19.7502 12C19.7299 11.9686 19.7008 11.9236 19.6526 11.8613L19.4163 11.5703C18.7361 10.7445 17.66 9.58182 16.3411 8.63281C15.0141 7.67813 13.526 7.00007 12.0002 7C11.4494 7 10.9036 7.08922 10.3684 7.24707L8.80688 5.68555C9.79067 5.26876 10.8646 5 12.0002 5Z" fill="#1B3954" />
    <path d="M5 2L21 18" stroke="#1B3954" stroke-width="2" />
</svg>  