<svg width="69" height="85" viewBox="0 0 69 85" fill="none" xmlns="http://www.w3.org/2000/svg">
        <g clip-path="url(#clip0_38_43)">
          <path d="M34.3507 0.162256C15.8821 0.402409 0.87515 14.3867 0.775104 31.4376C0.715076 40.2494 4.57687 48.2299 10.8598 53.9566C18.4433 60.9026 25.0664 68.6798 30.5889 77.1222L34.0305 82.3686H18.5633C17.783 82.3686 17.1627 82.9413 17.1627 83.6617C17.1627 84.3822 17.783 84.9548 18.5633 84.9548H51.1785C51.9588 84.9548 52.5791 84.3822 52.5791 83.6617C52.5791 82.9413 51.9588 82.3686 51.1785 82.3686H35.7113L39.1529 77.1222C44.6354 68.7537 51.0984 60.9765 58.6819 54.1413C65.0249 48.4331 68.9667 40.4526 68.9667 31.6223C68.9267 14.0911 53.3995 -0.0963707 34.3507 0.162256ZM34.8509 55.6561C20.4842 55.6561 8.81883 44.8862 8.81883 31.6223C8.81883 18.3585 20.4842 7.60701 34.8509 7.60701C49.2175 7.60701 60.8829 18.3585 60.8829 31.6408C60.8829 44.9231 49.2175 55.6561 34.8509 55.6561Z" fill="#1B3954" />
          <path d="M57.5614 83.1629C57.5214 83.089 57.4814 83.0151 57.4414 82.9413C57.3813 82.8674 57.3213 82.8119 57.2613 82.738C57.2013 82.6642 57.1212 82.6272 57.0412 82.5718C56.9611 82.5164 56.8811 82.4794 56.8011 82.4609C56.721 82.424 56.621 82.4055 56.541 82.3871C56.3609 82.3501 56.1808 82.3501 56.0007 82.3871C55.9207 82.4055 55.8206 82.424 55.7406 82.4609C55.6605 82.4979 55.5805 82.5348 55.5005 82.5718C55.4204 82.6087 55.3604 82.6642 55.2804 82.738C55.2003 82.8119 55.1603 82.8674 55.1003 82.9413C55.0403 83.0151 55.0002 83.089 54.9802 83.1629C54.9402 83.2368 54.9202 83.3292 54.9002 83.4031C54.8802 83.4955 54.8802 83.5693 54.8802 83.6617C54.8802 83.7541 54.9002 83.828 54.9002 83.9203C54.9202 83.9942 54.9402 84.0866 54.9802 84.1605C55.0203 84.2344 55.0603 84.3083 55.1003 84.3822C55.1403 84.4561 55.2203 84.5115 55.2804 84.5854C55.5405 84.8255 55.9007 84.9548 56.2608 84.9548C56.621 84.9548 56.9812 84.8071 57.2613 84.5854C57.3213 84.53 57.3813 84.4561 57.4414 84.3822C57.5014 84.3083 57.5414 84.2344 57.5614 84.1605C57.6014 84.0866 57.6215 83.9942 57.6415 83.9203C57.6615 83.828 57.6615 83.7541 57.6615 83.6617C57.6615 83.5693 57.6615 83.4955 57.6415 83.4031C57.6215 83.3292 57.6014 83.2368 57.5614 83.1629Z" fill="#1B3954" />
          <path d="M41.6741 16.9545H28.0278V25.3229H18.9636V37.9402H28.0278V46.2902H41.6741V37.9402H50.7383V25.3229H41.6741V16.9545Z" fill="#16ADE1" />
        </g>
        <defs>
          <clipPath id="clip0_38_43">
            <rect width="69" height="85" fill="white" />
          </clipPath>
        </defs>
      </svg>