<svg width="85" height="69" viewBox="0 0 85 69" fill="none" xmlns="http://www.w3.org/2000/svg">
        <path d="M30.462 45.3394H10.6434C14.2217 51.1616 20.149 57.6652 29.8198 64.7056C33.7651 67.5754 38.261 69 42.7753 69C43.1973 69 43.6378 68.9794 44.0598 68.9587L34.0954 37.0808L30.462 45.3394Z" fill="#1B3954" />
        <path d="M54.3911 43.9973L44.4818 68.9381C48.3905 68.6284 52.2625 67.2038 55.694 64.7056C63.8234 58.7801 69.2551 53.2469 72.8702 48.1472H56.2446L54.3911 43.9973Z" fill="#1B3954" />
        <path d="M62.2269 37.2873L53.8957 18.5817L45.2893 40.2397L35.5451 9.04309L24.443 34.4794H0V42.4488H28.8655L34.4624 29.6275L44.5186 61.7738L54.2627 37.2253L57.8411 45.2567H85V37.2873H62.2269Z" fill="#16ADE1" />
        <path d="M22.8465 31.5889L35.9305 1.58977L45.5829 32.456L53.7673 11.8303L63.8051 34.4174H79.1278C79.6783 31.7747 79.8251 29.4004 79.8251 27.2944C79.8251 26.5512 79.7884 25.8079 79.7334 25.0646C79.6967 25.0646 79.6416 25.0646 79.6049 25.0646L70.5581 25.1472C70.5581 25.1472 70.5581 25.1472 70.5397 25.1472C69.8424 25.1472 69.2552 24.5072 69.2552 23.7226C69.2552 22.9174 69.8241 22.2774 70.5214 22.2567L79.3664 22.1741C77.2377 9.807 67.5669 0.454218 55.951 0.454218C51.0881 0.454218 46.5738 2.08528 42.812 4.89318C38.94 1.81688 34.2055 0 29.0857 0C15.91 0 5.22992 12.0162 5.22992 26.8402C5.22992 28.2855 5.30332 29.8752 5.52353 31.5889H22.8465ZM64.6125 23.3716C64.6308 23.2891 64.6492 23.1858 64.6859 23.1032C64.7226 23.0206 64.7593 22.9381 64.796 22.8555C64.851 22.7729 64.8877 22.711 64.9611 22.6284C65.0162 22.5664 65.0896 22.5045 65.163 22.4426C65.2364 22.3806 65.3098 22.3393 65.3832 22.3187C65.4566 22.2774 65.5484 22.2567 65.6218 22.2361C65.7869 22.1948 65.9521 22.1948 66.1172 22.2361C66.1906 22.2567 66.2824 22.2774 66.3558 22.3187C66.4292 22.36 66.5026 22.4013 66.576 22.4426C66.6494 22.5045 66.7044 22.5664 66.7779 22.6284C67.0164 22.8968 67.1449 23.2684 67.1449 23.64C67.1449 23.7433 67.1449 23.8259 67.1265 23.9291C67.1082 24.0117 67.0898 24.1149 67.0531 24.1975C67.0164 24.2801 66.9797 24.3627 66.943 24.4452C66.888 24.5278 66.8513 24.5898 66.7779 24.6724C66.7228 24.7343 66.6494 24.7962 66.576 24.8582C66.5026 24.9201 66.4292 24.9614 66.3558 24.982C66.2824 25.0233 66.1906 25.044 66.1172 25.0646C66.0255 25.0853 65.9521 25.0853 65.8603 25.0853C65.7686 25.0853 65.6952 25.0853 65.6034 25.0646C65.53 25.044 65.4383 25.0233 65.3649 24.982C65.2915 24.9408 65.218 24.8995 65.1446 24.8582C65.0712 24.7962 65.0162 24.7549 64.9428 24.6724C64.8877 24.6104 64.8327 24.5278 64.7776 24.4452C64.7226 24.3627 64.6859 24.2801 64.6675 24.1975C64.6308 24.1149 64.6125 24.0117 64.5941 23.9291C64.5758 23.8259 64.5758 23.7433 64.5758 23.64C64.5758 23.5574 64.5941 23.4542 64.6125 23.3716Z" fill="#1B3954" />
      </svg>