<svg width="72" height="72" viewBox="0 0 72 72" fill="none" xmlns="http://www.w3.org/2000/svg">
        <g clip-path="url(#clip0_38_60)">
          <path d="M4.72852 45.8613C-1.17773 51.7676 -1.17773 61.3477 4.72852 67.2715C10.6348 73.1777 20.2148 73.1777 26.1387 67.2715L36.334 57.0762L14.9238 35.6836L4.72852 45.8613Z" fill="#1B3954" />
          <path d="M67.2715 26.1387C70.2246 23.1855 71.7012 19.3184 71.7012 15.4336C71.7012 11.5664 70.2246 7.68164 67.2715 4.72852C61.3652 -1.17773 51.7852 -1.17773 45.8613 4.72852L35.666 14.9238L57.0762 36.334L67.2715 26.1387Z" fill="#1B3954" />
          <path d="M33.9434 16.6641L16.6641 33.9434L38.0566 55.3359L55.3359 38.0566L33.9434 16.6641ZM31.8164 27C33.3105 25.5059 35.7539 25.5059 37.248 27C38.7422 28.4941 38.7422 30.9375 37.248 32.4316C35.7539 33.9258 33.3105 33.9258 31.8164 32.4316C30.3047 30.9199 30.3047 28.4941 31.8164 27ZM34.752 45C33.2578 43.5059 33.2578 41.0625 34.752 39.5684C36.2461 38.0742 38.6895 38.0742 40.1836 39.5684C41.6777 41.0625 41.6777 43.5059 40.1836 45C38.6895 46.4941 36.2461 46.5117 34.752 45Z" fill="#16ADE1" />
          <path d="M9.75586 31.1484L15.082 25.8223L10.248 20.9883C9.77344 20.5137 9.77344 19.7227 10.248 19.248C10.7227 18.7734 11.5137 18.7734 11.9883 19.248L16.8223 24.082L22.5352 18.3691L15.1699 11.0039C14.6953 10.5293 14.6953 9.73828 15.1699 9.26367C15.6445 8.78906 16.4355 8.78906 16.9102 9.26367L24.2754 16.6289L31.166 9.73828L26.1563 4.72852C23.1855 1.77539 19.3008 0.298828 15.4336 0.298828C11.5664 0.298828 7.68164 1.77539 4.72852 4.72852C-1.17773 10.6348 -1.17773 20.2148 4.72852 26.1387L9.75586 31.1484ZM12.0234 6.45117C12.0762 6.39844 12.1465 6.3457 12.2168 6.29297C12.2871 6.24023 12.3574 6.20508 12.4277 6.1875C12.498 6.15234 12.5859 6.13477 12.6562 6.11719C12.8145 6.08203 12.9727 6.08203 13.1309 6.11719C13.2012 6.13477 13.2891 6.15234 13.3594 6.1875C13.4297 6.22266 13.5 6.25781 13.5703 6.29297C13.6406 6.3457 13.6934 6.38086 13.7637 6.45117C13.8164 6.50391 13.8691 6.57422 13.9219 6.64453C13.9746 6.71484 14.0098 6.78516 14.0273 6.85547C14.0625 6.92578 14.0801 7.01367 14.0977 7.08398C14.1152 7.1543 14.1152 7.24219 14.1152 7.33008C14.1152 7.41797 14.1152 7.48828 14.0977 7.57617C14.0801 7.64648 14.0625 7.73437 14.0273 7.80469C13.9922 7.875 13.957 7.94531 13.9219 8.01563C13.8691 8.08594 13.834 8.13867 13.7637 8.20898C13.7109 8.26172 13.6406 8.31445 13.5703 8.36719C13.5 8.41992 13.4297 8.45508 13.3594 8.47266C13.2891 8.50781 13.2012 8.52539 13.1309 8.54297C13.043 8.56055 12.9727 8.56055 12.8848 8.56055C12.7969 8.56055 12.7266 8.56055 12.6387 8.54297C12.5684 8.52539 12.4805 8.50781 12.4102 8.47266C12.3398 8.4375 12.2695 8.40234 12.1992 8.36719C12.1289 8.33203 12.0762 8.26172 12.0059 8.20898C11.9531 8.15625 11.9004 8.08594 11.8477 8.01563C11.7949 7.94531 11.7598 7.875 11.7246 7.80469C11.6895 7.73437 11.6719 7.64648 11.6543 7.57617C11.6367 7.50586 11.6367 7.41797 11.6367 7.33008C11.6719 6.99609 11.7949 6.67969 12.0234 6.45117Z" fill="#1B3954" />
          <path d="M62.2441 40.8516L56.0742 47.0215L58.3242 49.2715C58.7988 49.7461 58.7988 50.5371 58.3242 51.0117C58.0781 51.2578 57.7617 51.3809 57.4629 51.3809C57.1641 51.3809 56.8301 51.2578 56.6016 51.0117L54.3516 48.7617L48.5332 54.5801L53.6484 59.6953C54.123 60.1699 54.123 60.9609 53.6484 61.4355C53.4023 61.6816 53.0859 61.8047 52.7871 61.8047C52.4707 61.8047 52.1543 61.6816 51.9258 61.4355L46.8105 56.3203L40.8867 62.2441L45.8965 67.2539C51.8027 73.1602 61.3828 73.1602 67.3066 67.2539C73.2129 61.3477 73.2129 51.7676 67.3066 45.8437L62.2441 40.8516ZM58.5703 64.4063C58.5527 64.4941 58.5352 64.5645 58.5 64.6348C58.4648 64.7051 58.4297 64.7754 58.3945 64.8457C58.3418 64.916 58.3066 64.9688 58.2363 65.0391C58.1836 65.0918 58.1133 65.1445 58.043 65.1973C57.9727 65.25 57.9023 65.2852 57.832 65.3027C57.7617 65.3379 57.6738 65.3555 57.6035 65.373C57.5156 65.3906 57.4453 65.3906 57.3574 65.3906C57.2695 65.3906 57.1992 65.3906 57.1113 65.373C57.041 65.3555 56.9531 65.3379 56.8828 65.3027C56.8125 65.2676 56.7422 65.2324 56.6719 65.1973C56.6016 65.1445 56.5488 65.1094 56.4785 65.0391C56.4258 64.9863 56.373 64.916 56.3203 64.8457C56.2676 64.7754 56.2324 64.7051 56.2148 64.6348C56.1797 64.5645 56.1621 64.4766 56.1445 64.4063C56.127 64.3359 56.127 64.2481 56.127 64.1602C56.127 64.0723 56.127 64.002 56.1445 63.9141C56.1621 63.8437 56.1797 63.7559 56.2148 63.6855C56.25 63.6152 56.2852 63.5449 56.3203 63.4746C56.373 63.4043 56.4082 63.3516 56.4785 63.2813C56.5313 63.2285 56.6016 63.1758 56.6719 63.123C56.7422 63.0703 56.8125 63.0352 56.8828 63.0176C56.9531 62.9824 57.041 62.9648 57.1113 62.9473C57.2695 62.9121 57.4277 62.9121 57.5859 62.9473C57.6562 62.9648 57.7441 62.9824 57.8145 63.0176C57.8848 63.0527 57.9551 63.0879 58.0254 63.123C58.0957 63.1758 58.1484 63.2109 58.2188 63.2813C58.2715 63.334 58.3242 63.4043 58.377 63.4746C58.4297 63.5449 58.4648 63.6152 58.4824 63.6855C58.5176 63.7559 58.5352 63.8437 58.5527 63.9141C58.5703 64.002 58.5703 64.0723 58.5703 64.1602C58.6055 64.2481 58.5879 64.3359 58.5703 64.4063Z" fill="#1B3954" />
        </g>
        <defs>
          <clipPath id="clip0_38_60">
            <rect width="72" height="72" fill="white" />
          </clipPath>
        </defs>
      </svg>