<svg class="xs-d-none" awidth="68" height="95" viewBox="0 0 68 95" fill="none" xmlns="http://www.w3.org/2000/svg">
        <path d="M66.6431 58.0719C65.8764 58.0719 65.2669 58.6813 65.2669 59.448V85.9479C65.2669 88.9164 62.8489 91.3148 59.9001 91.3148H39.4943C36.5259 91.3148 34.1275 88.8967 34.1275 85.9479V80.5811H39.7696V76.0203H9.21991V80.5811H14.862V92.7105C14.862 93.4772 15.4714 94.0867 16.2381 94.0867C17.0048 94.0867 17.6142 93.4772 17.6142 92.7105V80.5811H31.3556V85.9479C31.3556 90.4301 34.9925 94.067 39.4747 94.067H59.8805C64.3626 94.067 67.9995 90.4301 67.9995 85.9479V59.448C68.0192 58.7009 67.4097 58.0719 66.6431 58.0719Z" fill="#16ADE1" />
        <path d="M33.1839 7.88315C33.1839 3.53857 29.665 0 25.3008 0H23.6494C19.3049 0 15.7663 3.51891 15.7663 7.88315V13.6235H33.1643V7.88315H33.1839ZM24.4948 10.773C22.8631 10.773 21.546 9.45585 21.546 7.82417C21.546 6.1925 22.8631 4.87536 24.4948 4.87536C26.1264 4.87536 27.4436 6.1925 27.4436 7.82417C27.4436 9.45585 26.1264 10.773 24.4948 10.773Z" fill="#1B3954" />
        <path d="M25.6546 29.8616C25.9888 30.0385 26.323 30.2351 26.6769 30.471C29.8026 31.8078 33.2626 32.5352 36.7422 32.5352C40.6936 32.5352 44.468 31.6112 47.6724 29.8813L48.9896 29.1736V21.7819C48.9896 18.8134 46.5715 16.3954 43.6031 16.3954H5.38649C2.41802 16.3757 0 18.7741 0 21.7622V29.2522C4.08902 27.5419 8.45326 26.6572 12.6995 26.6572C17.4373 26.6376 21.7819 27.7188 25.6546 29.8616ZM40.6346 21.0938C42.6398 21.0938 44.2715 22.7255 44.2715 24.7307C44.2715 25.4974 43.662 26.1068 42.8954 26.1068C42.1287 26.1068 41.5192 25.4974 41.5192 24.7307C41.5192 24.2392 41.1261 23.846 40.6346 23.846C39.8679 23.846 39.2585 23.2366 39.2585 22.4699C39.2585 21.7032 39.8679 21.0938 40.6346 21.0938Z" fill="#16ADE1" />
        <path d="M48.9896 67.8816V32.2796C41.8338 36.1524 32.7514 36.1327 25.3991 32.8891C25.0452 32.6728 24.6914 32.4566 24.3179 32.26C16.8869 28.171 7.64725 28.7214 0 32.2403V37.037H7.86349C8.63018 37.037 9.2396 37.6465 9.2396 38.4132C9.2396 39.1798 8.63018 39.7893 7.86349 39.7893H0V67.8816C0 70.8501 2.41802 73.2681 5.38649 73.2681H43.6031C46.5715 73.2681 48.9896 70.8697 48.9896 67.8816ZM12.8765 39.8089C12.7782 39.8089 12.6995 39.7893 12.6012 39.7893C12.5226 39.7696 12.4243 39.7499 12.3457 39.7106C12.267 39.6713 12.1884 39.632 12.1098 39.5927C12.0311 39.5337 11.9722 39.4944 11.8935 39.4157C11.638 39.1602 11.5004 38.8063 11.5004 38.4525C11.5004 38.079 11.6576 37.7448 11.8935 37.4695C11.9525 37.4106 12.0311 37.3516 12.1098 37.2926C12.1884 37.2336 12.267 37.1943 12.3457 37.1747C12.4243 37.1353 12.5226 37.1157 12.6012 37.096C13.0534 36.9977 13.5252 37.155 13.8397 37.4695C14.0953 37.7251 14.2526 38.079 14.2526 38.4525C14.2526 38.8063 14.0953 39.1602 13.8397 39.4157C13.5842 39.6517 13.2303 39.8089 12.8765 39.8089ZM34.8353 57.2069H29.0556V62.9866H19.9536V57.2069H14.1543V48.1049H19.934V42.3252H29.0359V48.1049H34.8156V57.2069H34.8353Z" fill="#1B3954" />
      </svg>